<svg width="42" height="42" viewBox="0 0 42 42" fill="none" xmlns="http://www.w3.org/2000/svg">
<g filter="url(#filter0_d_0_399)">
<path d="M10.5176 24.4691L10.9252 25.4395C11.2127 25.3215 11.5121 25.2343 11.8184 25.1793L11.6284 24.1455C11.2476 24.214 10.8752 24.3224 10.5176 24.4691Z" fill="#00AAFF"/>
<path d="M7.72679 27.0755L8.68304 27.5332C9.01398 26.8585 9.5174 26.2808 10.1435 25.8573L9.54387 24.9904C8.76486 25.5172 8.13852 26.2359 7.72679 27.0755Z" fill="#00AAFF"/>
<path d="M36.9375 26.7798C36.9381 25.8755 36.6008 25.0028 35.9904 24.3293L35.1987 25.0296C35.5128 25.376 35.7279 25.7989 35.8219 26.2547H32.1562C32.0688 26.2547 31.9827 26.276 31.9056 26.3168C31.8285 26.3576 31.7628 26.4166 31.7142 26.4885L29.747 29.4052H28.4375V27.8299C28.4386 26.8555 28.8308 25.9212 29.5279 25.2321C30.2251 24.5431 31.1703 24.1555 32.1562 24.1544H33.2188C33.7412 24.1535 34.2521 24.3056 34.6871 24.5916L35.2755 23.7171C34.8167 23.4153 34.2955 23.2187 33.75 23.1417V21.5289C33.75 21.3897 33.694 21.2561 33.5944 21.1577C33.4948 21.0592 33.3596 21.0039 33.2188 21.0039C32.6554 21.0032 32.1152 20.7818 31.7168 20.388C31.3185 19.9942 31.0944 19.4604 31.0938 18.9035V16.8032H32.6875C32.8284 16.8032 32.9635 16.7479 33.0632 16.6494C33.1628 16.5509 33.2188 16.4174 33.2188 16.2781V12.6025C33.2188 12.4633 33.1628 12.3297 33.0632 12.2313C32.9635 12.1328 32.8284 12.0775 32.6875 12.0775H31.7505C31.5285 12.0778 31.3076 12.1079 31.0938 12.1669V11.5524C31.0938 11.4331 31.0527 11.3173 30.9773 11.2242L29.2392 9.07661C29.4669 8.69699 29.5488 8.24905 29.4699 7.81467C29.391 7.38029 29.1566 6.98847 28.8095 6.71083C28.4624 6.43318 28.0259 6.28825 27.5796 6.30253C27.1333 6.31681 26.7071 6.48935 26.379 6.7886C26.0508 7.08785 25.8425 7.49383 25.7922 7.93235C25.7419 8.37086 25.853 8.81262 26.105 9.17689C26.3571 9.54116 26.7334 9.80361 27.1651 9.91627C27.5968 10.0289 28.0551 9.98427 28.4563 9.79046L30.0312 11.7365V12.3991L27.6957 11.6296C27.5427 11.5775 27.3819 11.5514 27.2201 11.5524H22.8381L20.316 8.64401C20.527 8.49911 20.6994 8.3059 20.8185 8.08087C20.9377 7.85584 20.9999 7.60567 21 7.35171V7.15113L21.7689 6.77117C21.8362 6.73787 21.8957 6.69079 21.9432 6.63305C21.9908 6.57531 22.0254 6.50824 22.0447 6.43628C22.064 6.36432 22.0677 6.28912 22.0553 6.21567C22.043 6.14222 22.015 6.0722 21.9733 6.01026L21.1007 4.71659C21.2218 4.69347 21.3311 4.6294 21.4096 4.53536C21.4882 4.44132 21.5312 4.32318 21.5312 4.20122C21.5303 3.36595 21.1941 2.56516 20.5966 1.97453C19.999 1.38391 19.1888 1.05168 18.3438 1.05072C17.3433 1.05072 16.417 1.33472 15.728 2.08723C15.4295 2.41379 15.2034 2.79844 15.0641 3.21648C14.9249 3.63453 14.8757 4.07673 14.9196 4.51469L15.0333 5.63784C15.0812 6.1221 15.3153 6.56971 15.6875 6.8882V16.8032C15.6872 17.1721 15.7859 17.5344 15.9734 17.8534H15.1562C14.9753 17.8533 14.7956 17.8838 14.625 17.9437V11.0273C14.6245 10.6097 14.4565 10.2093 14.1577 9.91394C13.8589 9.61863 13.4538 9.45251 13.0312 9.45204H6.65625C6.23371 9.45251 5.82861 9.61863 5.52982 9.91394C5.23104 10.2093 5.06297 10.6097 5.0625 11.0273V13.6527H6.125V12.6025H13.5625V17.8534H6.125V14.7029H5.0625V18.9904C5.06238 19.2363 5.14967 19.4745 5.30913 19.6634C5.46858 19.8522 5.69008 19.9797 5.93495 20.0236L10.9062 20.917V22.1492C10.4558 22.2523 10.016 22.3962 9.59234 22.5791H6.65625C6.51535 22.5791 6.38023 22.6344 6.2806 22.7329C6.18097 22.8314 6.125 22.9649 6.125 23.1042V25.5965C5.43087 26.7486 5.06382 28.0643 5.0625 29.4052C5.0625 29.5445 5.11847 29.678 5.2181 29.7765C5.31773 29.875 5.45285 29.9303 5.59375 29.9303H8.02893C8.34641 30.7059 8.89103 31.3702 9.59297 31.838C10.2949 32.3057 11.1222 32.5556 11.9688 32.5556C12.8153 32.5556 13.6426 32.3057 14.3445 31.838C15.0465 31.3702 15.5911 30.7059 15.9086 29.9303H24.8409C25.211 29.9301 25.577 29.8535 25.9154 29.7056C26.2539 29.5577 26.5574 29.3416 26.8066 29.0711L27.375 28.4529V29.9303C27.375 30.0695 27.431 30.2031 27.5306 30.3016C27.6302 30.4 27.7654 30.4554 27.9062 30.4554H29.007C29.4748 31.2561 30.1969 31.882 31.0612 32.2358C31.9255 32.5896 32.8838 32.6517 33.7875 32.4124C34.6912 32.173 35.4897 31.6457 36.0592 30.9121C36.6287 30.1785 36.9375 29.2797 36.9375 28.355C36.9379 27.9529 36.8796 27.5527 36.7644 27.167C36.819 27.118 36.8626 27.0582 36.8924 26.9915C36.9222 26.9248 36.9375 26.8527 36.9375 26.7798ZM26.8438 8.13934C26.8438 7.98356 26.8905 7.83128 26.978 7.70176C27.0656 7.57223 27.1901 7.47128 27.3357 7.41167C27.4813 7.35205 27.6415 7.33646 27.7961 7.36685C27.9507 7.39724 28.0927 7.47225 28.2041 7.5824C28.3155 7.69255 28.3914 7.8329 28.4222 7.98568C28.4529 8.13846 28.4372 8.29683 28.3768 8.44075C28.3165 8.58467 28.2144 8.70768 28.0833 8.79422C27.9523 8.88077 27.7982 8.92696 27.6406 8.92696C27.4293 8.92674 27.2268 8.84368 27.0774 8.69602C26.928 8.54836 26.844 8.34816 26.8438 8.13934ZM19.2436 26.7798C18.7233 26.7792 18.2245 26.5746 17.8566 26.211C17.4888 25.8474 17.2818 25.3544 17.2812 24.8402C17.2812 24.3247 17.4131 23.8425 17.7607 23.4459C18.0705 23.0934 18.4982 22.8627 18.9658 22.7961C19.5302 22.7165 20.0467 22.4383 20.4204 22.0126C20.794 21.5869 20.9998 21.0423 21 20.4788C21.0001 20.4098 20.9864 20.3414 20.9597 20.2777C20.9329 20.214 20.8937 20.1561 20.8443 20.1074C20.9346 19.9207 20.9867 19.7183 20.9978 19.5118C21.0088 19.3052 20.9785 19.0985 20.9086 18.9035H22.3515L20.0202 24.8943C19.9639 25.0386 19.9358 25.1921 19.9375 25.3468V26.7798H19.2436ZM21 25.7296H23.6562C23.7702 25.7297 23.8811 25.766 23.9725 25.8332C24.064 25.9003 24.1312 25.9947 24.1642 26.1025C24.1972 26.2103 24.1943 26.3257 24.1559 26.4317C24.1175 26.5377 24.0456 26.6287 23.9509 26.6913C23.8174 26.7492 23.6732 26.7793 23.5274 26.7798H21V25.7296ZM25.1226 25.6377C25.017 25.3934 24.8507 25.1794 24.6391 25.0154C24.4275 24.8515 24.1776 24.7429 23.9123 24.6998L26.1124 19.4645C26.3079 18.9992 26.3843 18.4935 26.3347 17.992C26.285 17.4906 26.111 17.009 25.828 16.59C25.545 16.1709 25.1618 15.8274 24.7123 15.5898C24.2628 15.3522 23.7609 15.2279 23.2512 15.228H21V14.3953L21.1556 14.5491C21.2049 14.5978 21.2635 14.6365 21.3279 14.6629C21.3924 14.6893 21.4615 14.7029 21.5312 14.7029H26.9351C26.85 14.9405 26.8238 15.1947 26.8588 15.4444C26.8938 15.6941 26.9888 15.9318 27.1361 16.1376C27.2833 16.3433 27.4783 16.5112 27.7048 16.627C27.9312 16.7429 28.1825 16.8033 28.4375 16.8032H28.439C28.0927 17.257 27.9056 17.8101 27.9062 18.3785V22.4518C27.9054 22.7301 27.7936 22.997 27.595 23.1943L25.1226 25.6377ZM28.4375 15.753C28.3324 15.753 28.2297 15.7222 28.1424 15.6645C28.055 15.6068 27.9869 15.5248 27.9467 15.4289C27.9065 15.3329 27.896 15.2274 27.9165 15.1255C27.937 15.0237 27.9876 14.9301 28.0618 14.8567C28.1361 14.7832 28.2308 14.7332 28.3339 14.713C28.4369 14.6927 28.5437 14.7031 28.6408 14.7428C28.7379 14.7826 28.8208 14.8499 28.8792 14.9362C28.9376 15.0226 28.9688 15.1241 28.9688 15.228C28.9686 15.3672 28.9126 15.5006 28.813 15.5991C28.7134 15.6975 28.5783 15.7529 28.4375 15.753ZM32.1562 13.1276V15.753H31.0938V13.2911C31.2958 13.1842 31.5213 13.128 31.7505 13.1276H32.1562ZM30.0312 15.228C30.0313 14.9759 29.9702 14.7276 29.853 14.5037C29.7358 14.2799 29.566 14.0871 29.3578 13.9416C29.1496 13.7961 28.9091 13.7021 28.6565 13.6676C28.4039 13.633 28.1466 13.6589 27.9062 13.743V12.806L30.0312 13.5061V15.228ZM22.5938 12.6025H26.8438V13.6527H21.7513L18.7194 10.656L17.9681 11.3986L19.9375 13.3451V15.228H16.75V8.92696H19.1619L22.1904 12.4192C22.2403 12.4767 22.3021 12.5229 22.3718 12.5545C22.4414 12.5862 22.5171 12.6025 22.5938 12.6025ZM16.5158 2.79189C17.0014 2.2615 17.6459 2.10089 18.3438 2.10089C18.8147 2.10148 19.2722 2.25643 19.6446 2.54147C20.0169 2.82652 20.2832 3.22556 20.4015 3.67613H18.3438C18.2029 3.67613 18.0677 3.73146 17.9681 3.82993C17.8685 3.9284 17.8125 4.06196 17.8125 4.20122V5.44829C17.8117 5.66666 17.7262 5.87642 17.5737 6.03439C17.4211 6.19235 17.2131 6.28649 16.9925 6.29743C16.7718 6.30836 16.5553 6.23526 16.3875 6.09317C16.2197 5.95108 16.1135 5.75081 16.0906 5.53361L15.9769 4.41046C15.9458 4.11835 15.9777 3.82303 16.0706 3.54402C16.1635 3.26501 16.3152 3.00865 16.5158 2.79189ZM16.9492 7.35171C17.4598 7.35119 17.9493 7.15049 18.3104 6.79364C18.6714 6.43679 18.8745 5.95295 18.875 5.44829V4.7263H19.9375C19.9375 4.82998 19.9685 4.93134 20.0267 5.01759L20.7554 6.09808L20.2308 6.35721C20.1427 6.40085 20.0686 6.46787 20.0168 6.55077C19.9649 6.63368 19.9375 6.72919 19.9375 6.82663V7.35171C19.9373 7.49093 19.8813 7.62439 19.7817 7.72283C19.6821 7.82127 19.5471 7.87664 19.4062 7.8768H16.75V7.34141C16.8162 7.34819 16.8827 7.35162 16.9492 7.35171ZM16.75 16.8032V16.2781H23.2512C23.5861 16.2781 23.9159 16.3598 24.2112 16.516C24.5065 16.6721 24.7584 16.8978 24.9443 17.1732C25.1302 17.4485 25.2446 17.765 25.2771 18.0944C25.3097 18.4239 25.2595 18.7563 25.1311 19.062L22.7704 24.6794H21.2423L23.6209 18.567C23.6518 18.4874 23.6627 18.4016 23.6526 18.317C23.6425 18.2324 23.6117 18.1514 23.5629 18.0812C23.5141 18.0109 23.4487 17.9535 23.3724 17.9138C23.2961 17.8741 23.2112 17.8534 23.125 17.8534H17.8125C17.5308 17.853 17.2608 17.7423 17.0616 17.5454C16.8624 17.3485 16.7503 17.0816 16.75 16.8032ZM15.1562 18.9035H19.4062C19.5471 18.9035 19.6823 18.9589 19.7819 19.0573C19.8815 19.1558 19.9375 19.2894 19.9375 19.4286C19.9375 19.5679 19.8815 19.7014 19.7819 19.7999C19.6823 19.8984 19.5471 19.9537 19.4062 19.9537H15.1562C15.0154 19.9537 14.8802 19.8984 14.7806 19.7999C14.681 19.7014 14.625 19.5679 14.625 19.4286C14.625 19.2894 14.681 19.1558 14.7806 19.0573C14.8802 18.9589 15.0154 18.9035 15.1562 18.9035ZM6.125 11.5524V11.0273C6.12516 10.8881 6.18118 10.7546 6.28077 10.6562C6.38037 10.5577 6.5154 10.5024 6.65625 10.5022H13.0312C13.1721 10.5024 13.3071 10.5577 13.4067 10.6562C13.5063 10.7546 13.5623 10.8881 13.5625 11.0273V11.5524H6.125ZM6.125 18.9035H13.5625V19.9537H11.4854L6.125 18.9904V18.9035ZM7.84426 23.6293C7.61366 23.8143 7.39435 24.0127 7.1875 24.2234V23.6293H7.84426ZM11.9688 31.5055C11.4098 31.5031 10.8612 31.3564 10.3772 31.0802C9.89322 30.8039 9.49055 30.4075 9.20904 29.9303H10.5645C10.9522 30.2686 11.4516 30.4554 11.9688 30.4554C12.4859 30.4554 12.9853 30.2686 13.373 29.9303H14.7285C14.447 30.4075 14.0443 30.8039 13.5603 31.0802C13.0763 31.3564 12.5277 31.5031 11.9688 31.5055ZM26.0203 28.3649C25.8708 28.5271 25.6887 28.6567 25.4856 28.7454C25.2825 28.8342 25.063 28.88 24.8409 28.8801H6.14698C6.26123 27.5093 6.81959 26.2113 7.7392 25.179C8.6588 24.1466 9.89066 23.4347 11.252 23.1491C11.3893 23.1196 11.5294 23.1045 11.6699 23.1042H15.1562V22.054H11.9688V21.0039H19.8246C19.7346 21.2035 19.5948 21.3774 19.4182 21.5091C19.2417 21.6408 19.0342 21.726 18.8152 21.7568C18.0946 21.8593 17.4353 22.2146 16.9579 22.7579C16.4438 23.343 16.2188 24.0749 16.2188 24.8403C16.2183 25.5517 16.4757 26.2398 16.9444 26.7798H12.5V27.8299H23.5274C24.0902 27.8258 24.6292 27.6052 25.03 27.2147L28.3463 23.9369C28.7435 23.5421 28.9671 23.0085 28.9688 22.4518V18.3785C28.9691 18.0528 29.0715 17.7352 29.2617 17.4693C29.4519 17.2034 29.7207 17.0021 30.0312 16.8932V18.9035C30.0322 19.6478 30.2993 20.3678 30.7854 20.9363C31.2714 21.5048 31.9452 21.8852 32.6875 22.0103V23.1042C32.3577 23.1042 32.0202 23.0845 31.6923 23.1268C30.6985 23.2243 29.7603 23.6262 29.0089 24.2764C28.2576 24.9267 27.7306 25.7927 27.5016 26.7535L26.0203 28.3649ZM32.4405 27.3049H32.4675L33.1087 27.9387C33.2202 28.0493 33.2829 28.1989 33.2832 28.355C33.2832 28.4715 33.2482 28.5853 33.1828 28.6821C33.1173 28.779 33.0243 28.8544 32.9155 28.899C32.8066 28.9436 32.6868 28.9552 32.5713 28.9325C32.4557 28.9098 32.3496 28.8537 32.2663 28.7713L31.7773 28.2881L32.4405 27.3049ZM32.6875 31.5055C32.2272 31.5041 31.7726 31.4047 31.3546 31.214C30.9366 31.0234 30.5651 30.746 30.2653 30.4007C30.3494 30.3602 30.4212 30.2984 30.4733 30.2216L30.9338 29.539C31.1896 29.9097 31.5589 30.1898 31.9875 30.3379C32.4161 30.4861 32.8815 30.4945 33.3153 30.3621C33.7492 30.2297 34.1287 29.9633 34.3981 29.6021C34.6676 29.2409 34.8128 28.8038 34.8125 28.355C34.8133 28.0439 34.7432 27.7365 34.6074 27.4558C34.5826 27.4042 34.5553 27.3542 34.5266 27.3049H35.6934C35.863 27.7801 35.9148 28.2886 35.8446 28.7878C35.7743 29.2869 35.584 29.7621 35.2896 30.1735C34.9952 30.585 34.6052 30.9207 34.1525 31.1524C33.6997 31.3842 33.1974 31.5053 32.6875 31.5055Z" fill="#00AAFF"/>
<path d="M8.25 13.6522H7.1875V16.8027H8.25V13.6522Z" fill="#00AAFF"/>
</g>
<defs>
<filter id="filter0_d_0_399" x="0" y="0" width="42" height="41.6053" filterUnits="userSpaceOnUse" color-interpolation-filters="sRGB">
<feFlood flood-opacity="0" result="BackgroundImageFix"/>
<feColorMatrix in="SourceAlpha" type="matrix" values="0 0 0 0 0 0 0 0 0 0 0 0 0 0 0 0 0 0 127 0" result="hardAlpha"/>
<feOffset dy="4"/>
<feGaussianBlur stdDeviation="2"/>
<feComposite in2="hardAlpha" operator="out"/>
<feColorMatrix type="matrix" values="0 0 0 0 0 0 0 0 0 0 0 0 0 0 0 0 0 0 0.25 0"/>
<feBlend mode="normal" in2="BackgroundImageFix" result="effect1_dropShadow_0_399"/>
<feBlend mode="normal" in="SourceGraphic" in2="effect1_dropShadow_0_399" result="shape"/>
</filter>
</defs>
</svg>
