<svg width="114" height="18" viewBox="0 0 114 18" fill="none" xmlns="http://www.w3.org/2000/svg">
<path d="M6.099 14.19C4.97167 14.19 4.00267 14.019 3.192 13.677C2.38133 13.335 1.767 12.8853 1.349 12.328C0.931 11.7707 0.709333 11.169 0.684 10.523C0.684 10.409 0.722 10.314 0.798 10.238C0.874 10.162 0.969 10.124 1.083 10.124H2.774C2.926 10.124 3.04 10.1557 3.116 10.219C3.20467 10.2697 3.287 10.3583 3.363 10.485C3.48967 10.9157 3.781 11.2767 4.237 11.568C4.693 11.8593 5.31367 12.005 6.099 12.005C6.99833 12.005 7.676 11.8593 8.132 11.568C8.588 11.264 8.816 10.846 8.816 10.314C8.816 9.95933 8.69567 9.668 8.455 9.44C8.227 9.212 7.87867 9.01567 7.41 8.851C6.954 8.68633 6.27 8.48367 5.358 8.243C3.86333 7.88833 2.76767 7.41967 2.071 6.837C1.387 6.24167 1.045 5.39933 1.045 4.31C1.045 3.57533 1.24133 2.923 1.634 2.353C2.03933 1.783 2.61567 1.33333 3.363 1.004C4.123 0.674666 5.00333 0.509999 6.004 0.509999C7.04267 0.509999 7.942 0.693666 8.702 1.061C9.462 1.42833 10.0383 1.89067 10.431 2.448C10.8363 2.99267 11.0517 3.53733 11.077 4.082C11.077 4.196 11.039 4.291 10.963 4.367C10.887 4.443 10.792 4.481 10.678 4.481H8.911C8.645 4.481 8.46133 4.36067 8.36 4.12C8.284 3.71467 8.03067 3.379 7.6 3.113C7.16933 2.83433 6.63733 2.695 6.004 2.695C5.29467 2.695 4.73733 2.828 4.332 3.094C3.92667 3.36 3.724 3.74633 3.724 4.253C3.724 4.60767 3.82533 4.899 4.028 5.127C4.23067 5.355 4.54733 5.55767 4.978 5.735C5.42133 5.91233 6.05467 6.10867 6.878 6.324C7.99267 6.57733 8.87933 6.86233 9.538 7.179C10.2093 7.49567 10.7033 7.89467 11.02 8.376C11.3367 8.85733 11.495 9.47167 11.495 10.219C11.495 11.0297 11.267 11.739 10.811 12.347C10.3677 12.9423 9.73433 13.3983 8.911 13.715C8.10033 14.0317 7.163 14.19 6.099 14.19ZM14.6414 2.486C14.5148 2.486 14.4071 2.44167 14.3184 2.353C14.2298 2.26433 14.1854 2.15667 14.1854 2.03V0.662C14.1854 0.535333 14.2298 0.427666 14.3184 0.338999C14.4071 0.250333 14.5148 0.206 14.6414 0.206H16.3704C16.4971 0.206 16.6048 0.250333 16.6934 0.338999C16.7948 0.427666 16.8454 0.535333 16.8454 0.662V2.03C16.8454 2.15667 16.8011 2.26433 16.7124 2.353C16.6238 2.44167 16.5098 2.486 16.3704 2.486H14.6414ZM14.7174 14C14.5908 14 14.4831 13.9557 14.3944 13.867C14.3058 13.7783 14.2614 13.6707 14.2614 13.544V4.576C14.2614 4.44933 14.3058 4.34167 14.3944 4.253C14.4831 4.16433 14.5908 4.12 14.7174 4.12H16.2944C16.4338 4.12 16.5414 4.16433 16.6174 4.253C16.7061 4.329 16.7504 4.43667 16.7504 4.576V13.544C16.7504 13.6707 16.7061 13.7783 16.6174 13.867C16.5414 13.9557 16.4338 14 16.2944 14H14.7174ZM20.5442 14C20.4175 14 20.3099 13.9557 20.2212 13.867C20.1325 13.7783 20.0882 13.6707 20.0882 13.544V4.576C20.0882 4.44933 20.1325 4.34167 20.2212 4.253C20.3099 4.16433 20.4175 4.12 20.5442 4.12H22.0262C22.1529 4.12 22.2605 4.16433 22.3492 4.253C22.4379 4.34167 22.4822 4.44933 22.4822 4.576V5.222C23.1409 4.36067 24.0592 3.93 25.2372 3.93C26.6432 3.93 27.6249 4.49367 28.1822 5.621C28.4862 5.11433 28.9169 4.709 29.4742 4.405C30.0315 4.08833 30.6332 3.93 31.2792 3.93C32.3179 3.93 33.1665 4.28467 33.8252 4.994C34.4839 5.70333 34.8132 6.73567 34.8132 8.091V13.544C34.8132 13.6707 34.7689 13.7783 34.6802 13.867C34.6042 13.9557 34.4965 14 34.3572 14H32.7992C32.6725 14 32.5649 13.9557 32.4762 13.867C32.3875 13.7783 32.3432 13.6707 32.3432 13.544V8.243C32.3432 7.445 32.1722 6.86867 31.8302 6.514C31.5009 6.14667 31.0575 5.963 30.5002 5.963C30.0062 5.963 29.5819 6.14667 29.2272 6.514C28.8852 6.88133 28.7142 7.45767 28.7142 8.243V13.544C28.7142 13.6707 28.6699 13.7783 28.5812 13.867C28.4925 13.9557 28.3849 14 28.2582 14H26.7002C26.5735 14 26.4659 13.9557 26.3772 13.867C26.2885 13.7783 26.2442 13.6707 26.2442 13.544V8.243C26.2442 7.445 26.0669 6.86867 25.7122 6.514C25.3702 6.14667 24.9332 5.963 24.4012 5.963C23.8945 5.963 23.4639 6.14667 23.1092 6.514C22.7672 6.88133 22.5962 7.45767 22.5962 8.243V13.544C22.5962 13.6707 22.5519 13.7783 22.4632 13.867C22.3745 13.9557 22.2669 14 22.1402 14H20.5442ZM38.5247 17.61C38.3981 17.61 38.2904 17.5657 38.2017 17.477C38.1131 17.401 38.0687 17.2933 38.0687 17.154V4.576C38.0687 4.43667 38.1131 4.329 38.2017 4.253C38.2904 4.16433 38.3981 4.12 38.5247 4.12H40.0257C40.1651 4.12 40.2727 4.16433 40.3487 4.253C40.4374 4.329 40.4817 4.43667 40.4817 4.576V5.336C41.1911 4.39867 42.2044 3.93 43.5217 3.93C44.8011 3.93 45.7827 4.33533 46.4667 5.146C47.1507 5.944 47.5181 7.027 47.5687 8.395C47.5814 8.547 47.5877 8.76867 47.5877 9.06C47.5877 9.364 47.5814 9.592 47.5687 9.744C47.5181 11.074 47.1507 12.1507 46.4667 12.974C45.7827 13.7847 44.8011 14.19 43.5217 14.19C42.2424 14.19 41.2671 13.7403 40.5957 12.841V17.154C40.5957 17.2933 40.5514 17.401 40.4627 17.477C40.3867 17.5657 40.2791 17.61 40.1397 17.61H38.5247ZM42.8187 12.157C44.1867 12.157 44.9151 11.3147 45.0037 9.63C45.0164 9.50333 45.0227 9.31333 45.0227 9.06C45.0227 8.80667 45.0164 8.61667 45.0037 8.49C44.9151 6.80533 44.1867 5.963 42.8187 5.963C42.0841 5.963 41.5394 6.19733 41.1847 6.666C40.8301 7.13467 40.6337 7.711 40.5957 8.395L40.5767 9.117L40.5957 9.858C40.6211 10.4913 40.8174 11.036 41.1847 11.492C41.5647 11.9353 42.1094 12.157 42.8187 12.157ZM51.0126 14C50.886 14 50.7783 13.9557 50.6896 13.867C50.601 13.7783 50.5566 13.6707 50.5566 13.544V0.965999C50.5566 0.826666 50.601 0.719 50.6896 0.643C50.7783 0.554333 50.886 0.509999 51.0126 0.509999H52.5896C52.729 0.509999 52.8366 0.554333 52.9126 0.643C53.0013 0.719 53.0456 0.826666 53.0456 0.965999V13.544C53.0456 13.6707 53.0013 13.7783 52.9126 13.867C52.8366 13.9557 52.729 14 52.5896 14H51.0126ZM60.6389 14.19C59.2329 14.19 58.1119 13.7847 57.2759 12.974C56.4526 12.1507 56.0156 10.998 55.9649 9.516L55.9459 9.041L55.9649 8.566C56.0283 7.122 56.4716 5.98833 57.2949 5.165C58.1309 4.34167 59.2456 3.93 60.6389 3.93C62.1336 3.93 63.2863 4.386 64.0969 5.298C64.9203 6.21 65.3319 7.426 65.3319 8.946V9.345C65.3319 9.47167 65.2876 9.57933 65.1989 9.668C65.1103 9.75667 64.9963 9.801 64.8569 9.801H58.5489V9.953C58.5743 10.6497 58.7643 11.2387 59.1189 11.72C59.4863 12.1887 59.9866 12.423 60.6199 12.423C61.3673 12.423 61.9689 12.1317 62.4249 11.549C62.5389 11.4097 62.6276 11.321 62.6909 11.283C62.7669 11.245 62.8746 11.226 63.0139 11.226H64.6479C64.7619 11.226 64.8569 11.264 64.9329 11.34C65.0216 11.4033 65.0659 11.4857 65.0659 11.587C65.0659 11.891 64.8823 12.252 64.5149 12.67C64.1603 13.0753 63.6473 13.43 62.9759 13.734C62.3046 14.038 61.5256 14.19 60.6389 14.19ZM62.7479 8.205V8.148C62.7479 7.40067 62.5579 6.799 62.1779 6.343C61.8106 5.887 61.2976 5.659 60.6389 5.659C59.9803 5.659 59.4673 5.887 59.0999 6.343C58.7326 6.799 58.5489 7.40067 58.5489 8.148V8.205H62.7479Z" fill="#FF6838"/>
<path d="M68.8498 14C68.7231 14 68.6154 13.9557 68.5268 13.867C68.4381 13.7783 68.3938 13.6707 68.3938 13.544V1.175C68.3938 1.03567 68.4318 0.921666 68.5078 0.833C68.5964 0.744333 68.7104 0.699999 68.8498 0.699999H77.0958C77.2351 0.699999 77.3491 0.744333 77.4378 0.833C77.5264 0.921666 77.5708 1.03567 77.5708 1.175V2.505C77.5708 2.64433 77.5264 2.75833 77.4378 2.847C77.3491 2.923 77.2351 2.961 77.0958 2.961H70.9968V6.571H76.7158C76.8551 6.571 76.9691 6.61533 77.0578 6.704C77.1464 6.79267 77.1908 6.90667 77.1908 7.046V8.376C77.1908 8.51533 77.1464 8.62933 77.0578 8.718C76.9691 8.794 76.8551 8.832 76.7158 8.832H70.9968V13.544C70.9968 13.6833 70.9524 13.7973 70.8638 13.886C70.7751 13.962 70.6611 14 70.5218 14H68.8498ZM84.5784 14.19C83.0964 14.19 81.95 13.81 81.1394 13.05C80.3287 12.2773 79.8917 11.226 79.8284 9.896L79.8094 9.06L79.8284 8.224C79.8917 6.90667 80.335 5.86167 81.1584 5.089C81.9817 4.31633 83.1217 3.93 84.5784 3.93C86.035 3.93 87.175 4.31633 87.9984 5.089C88.8217 5.86167 89.265 6.90667 89.3284 8.224C89.341 8.376 89.3474 8.65467 89.3474 9.06C89.3474 9.46533 89.341 9.744 89.3284 9.896C89.265 11.226 88.828 12.2773 88.0174 13.05C87.2067 13.81 86.0604 14.19 84.5784 14.19ZM84.5784 12.309C85.2497 12.309 85.769 12.1 86.1364 11.682C86.5037 11.2513 86.7064 10.6243 86.7444 9.801C86.757 9.67433 86.7634 9.42733 86.7634 9.06C86.7634 8.69267 86.757 8.44567 86.7444 8.319C86.7064 7.49567 86.5037 6.875 86.1364 6.457C85.769 6.02633 85.2497 5.811 84.5784 5.811C83.907 5.811 83.3877 6.02633 83.0204 6.457C82.653 6.875 82.4504 7.49567 82.4124 8.319L82.3934 9.06L82.4124 9.801C82.4504 10.6243 82.653 11.2513 83.0204 11.682C83.3877 12.1 83.907 12.309 84.5784 12.309ZM96.6395 14.19C95.1575 14.19 94.0112 13.81 93.2005 13.05C92.3898 12.2773 91.9528 11.226 91.8895 9.896L91.8705 9.06L91.8895 8.224C91.9528 6.90667 92.3962 5.86167 93.2195 5.089C94.0428 4.31633 95.1828 3.93 96.6395 3.93C98.0962 3.93 99.2362 4.31633 100.059 5.089C100.883 5.86167 101.326 6.90667 101.389 8.224C101.402 8.376 101.408 8.65467 101.408 9.06C101.408 9.46533 101.402 9.744 101.389 9.896C101.326 11.226 100.889 12.2773 100.078 13.05C99.2678 13.81 98.1215 14.19 96.6395 14.19ZM96.6395 12.309C97.3108 12.309 97.8302 12.1 98.1975 11.682C98.5648 11.2513 98.7675 10.6243 98.8055 9.801C98.8182 9.67433 98.8245 9.42733 98.8245 9.06C98.8245 8.69267 98.8182 8.44567 98.8055 8.319C98.7675 7.49567 98.5648 6.875 98.1975 6.457C97.8302 6.02633 97.3108 5.811 96.6395 5.811C95.9682 5.811 95.4488 6.02633 95.0815 6.457C94.7142 6.875 94.5115 7.49567 94.4735 8.319L94.4545 9.06L94.4735 9.801C94.5115 10.6243 94.7142 11.2513 95.0815 11.682C95.4488 12.1 95.9682 12.309 96.6395 12.309ZM107.998 14.19C106.718 14.19 105.737 13.7783 105.053 12.955C104.369 12.1317 104.001 11.036 103.951 9.668L103.932 9.041L103.951 8.433C103.989 7.103 104.35 6.02 105.034 5.184C105.73 4.348 106.718 3.93 107.998 3.93C109.226 3.93 110.202 4.348 110.924 5.184V0.965999C110.924 0.826666 110.968 0.719 111.057 0.643C111.145 0.554333 111.253 0.509999 111.38 0.509999H112.995C113.134 0.509999 113.242 0.554333 113.318 0.643C113.406 0.719 113.451 0.826666 113.451 0.965999V13.544C113.451 13.6707 113.406 13.7783 113.318 13.867C113.242 13.9557 113.134 14 112.995 14H111.494C111.367 14 111.259 13.9557 111.171 13.867C111.082 13.7783 111.038 13.6707 111.038 13.544V12.841C110.316 13.7403 109.302 14.19 107.998 14.19ZM108.701 12.157C109.435 12.157 109.98 11.9227 110.335 11.454C110.689 10.9853 110.886 10.409 110.924 9.725C110.936 9.573 110.943 9.326 110.943 8.984C110.943 8.65467 110.936 8.414 110.924 8.262C110.898 7.62867 110.696 7.09033 110.316 6.647C109.948 6.191 109.41 5.963 108.701 5.963C107.333 5.963 106.604 6.80533 106.516 8.49L106.497 9.06L106.516 9.63C106.604 11.3147 107.333 12.157 108.701 12.157Z" fill="#363853"/>
</svg>
