<svg width="15" height="15" viewBox="0 0 15 15" fill="none" xmlns="http://www.w3.org/2000/svg">
<path d="M9.31801 14.3001C9.05868 14.3001 8.81931 14.1616 8.70237 13.9406L6.66079 10.0822C6.54867 9.87031 6.56793 9.61681 6.71031 9.42116L10.0059 5.20006L5.53819 8.31356C5.33115 8.44876 5.06288 8.46566 4.83864 8.36036L0.756163 6.43181C0.511284 6.31546 0.362017 6.07301 0.37715 5.81431C0.391595 5.55561 0.568376 5.32941 0.825638 5.24036L13.8951 0.690357C14.1461 0.603907 14.4288 0.660457 14.6194 0.840507C14.8092 1.01926 14.8711 1.28706 14.7783 1.52496L9.96322 13.875C9.8683 14.1181 9.62961 14.2851 9.35584 14.2988C9.34346 14.2994 9.33039 14.3001 9.31801 14.3001Z" fill="#FF6838"/>
</svg>
